<svg xmlns="http://www.w3.org/2000/svg" xmlns:xlink="http://www.w3.org/1999/xlink"><symbol id="academy"><g fill="currentColor"><path d="M8.32 3.6h.877V12H8.32V3.6ZM3.066 12h-.888V3.6h.888V12Zm5.34-3.876H2.969v-.78h5.436v.78ZM13.57 12V4.368h-2.952V3.6h6.792v.768h-2.952V12h-.888Zm5.259 0V3.6h.732l3.84 6.552h-.384L26.82 3.6h.732V12H26.7V4.932h.204l-3.504 6h-.42l-3.528-6h.228V12h-.852Zm11.46 0V3.6h.889v7.632h4.704V12H30.29Zm8.864 0 3.84-8.4h.876l3.84 8.4h-.936l-3.528-7.884h.36L40.077 12h-.924Zm1.512-2.244.264-.72h4.884l.264.72h-5.412Zm10.81 2.304a3.436 3.436 0 0 1-1.68-.408 3.09 3.09 0 0 1-1.151-1.14c-.28-.488-.42-1.044-.42-1.668 0-.632.14-1.188.42-1.668.28-.48.664-.856 1.152-1.128a3.436 3.436 0 0 1 1.68-.408c.536 0 1.02.104 1.452.312.432.208.772.52 1.02.936l-.636.432a2 2 0 0 0-.804-.708 2.402 2.402 0 0 0-1.044-.228c-.448 0-.852.104-1.212.312-.36.2-.644.484-.852.852-.208.368-.312.8-.312 1.296s.104.928.312 1.296c.208.368.492.656.852.864.36.2.764.3 1.212.3.376 0 .724-.076 1.044-.228.32-.152.588-.384.804-.696l.636.432c-.248.408-.588.72-1.02.936a3.304 3.304 0 0 1-1.452.312ZM59.57 12v-1.392l-.036-.228V8.052c0-.536-.152-.948-.456-1.236-.296-.288-.74-.432-1.332-.432a3.33 3.33 0 0 0-1.164.204c-.368.136-.68.316-.936.54l-.384-.636c.32-.272.704-.48 1.152-.624.448-.152.92-.228 1.416-.228.816 0 1.444.204 1.884.612.448.4.672 1.012.672 1.836V12h-.816Zm-2.172.06c-.472 0-.884-.076-1.236-.228a1.89 1.89 0 0 1-.792-.648c-.184-.28-.276-.6-.276-.96 0-.328.076-.624.228-.888.16-.272.416-.488.768-.648.36-.168.84-.252 1.44-.252h2.172v.636h-2.148c-.608 0-1.032.108-1.272.324a1.054 1.054 0 0 0-.348.804c0 .36.14.648.42.864.28.216.672.324 1.176.324.48 0 .892-.108 1.236-.324.352-.224.608-.544.768-.96l.192.588c-.16.416-.44.748-.84.996-.392.248-.888.372-1.488.372Zm7.81 0c-.6 0-1.14-.136-1.62-.408a2.964 2.964 0 0 1-1.116-1.128c-.272-.488-.408-1.048-.408-1.68 0-.64.136-1.2.408-1.68.272-.48.644-.852 1.116-1.116a3.228 3.228 0 0 1 1.62-.408c.552 0 1.044.124 1.476.372.44.248.788.612 1.044 1.092.264.472.396 1.052.396 1.74 0 .68-.128 1.26-.384 1.74s-.604.848-1.044 1.104c-.432.248-.928.372-1.488.372Zm.06-.756c.448 0 .848-.1 1.2-.3.36-.208.64-.496.84-.864.208-.376.312-.808.312-1.296 0-.496-.104-.928-.312-1.296-.2-.368-.48-.652-.84-.852a2.314 2.314 0 0 0-1.2-.312c-.44 0-.836.104-1.188.312-.352.2-.632.484-.84.852-.208.368-.312.8-.312 1.296 0 .488.104.92.312 1.296.208.368.488.656.84.864.352.2.748.3 1.188.3Zm2.376.696v-1.896l.084-1.272-.12-1.272V3.096h.852V12h-.816Zm5.864.06c-.655 0-1.231-.136-1.727-.408a3.064 3.064 0 0 1-1.165-1.14c-.28-.488-.42-1.044-.42-1.668 0-.624.133-1.176.397-1.656a2.99 2.99 0 0 1 1.103-1.128c.472-.28 1-.42 1.585-.42.591 0 1.115.136 1.572.408a2.8 2.8 0 0 1 1.092 1.128c.264.48.396 1.036.396 1.668 0 .04-.004.084-.012.132v.132h-5.484v-.636h5.028l-.337.252c0-.456-.1-.86-.3-1.212a2.11 2.11 0 0 0-.791-.84c-.336-.2-.724-.3-1.164-.3-.433 0-.82.1-1.165.3-.344.2-.612.48-.803.84-.192.36-.288.772-.288 1.236v.132c0 .48.103.904.311 1.272.216.36.513.644.889.852.384.2.82.3 1.308.3.383 0 .74-.068 1.067-.204.337-.136.625-.344.865-.624l.48.552c-.28.336-.632.592-1.056.768a3.507 3.507 0 0 1-1.38.264Zm12.439-6.42c.512 0 .956.1 1.332.3.384.192.68.488.888.888.216.4.324.904.324 1.512V12h-.852V8.424c0-.664-.16-1.164-.48-1.5-.312-.344-.756-.516-1.332-.516-.432 0-.808.092-1.128.276a1.82 1.82 0 0 0-.732.78c-.168.336-.252.744-.252 1.224V12h-.852V8.424c0-.664-.16-1.164-.48-1.5-.32-.344-.768-.516-1.344-.516a2.2 2.2 0 0 0-1.116.276 1.8 1.8 0 0 0-.744.78c-.168.336-.252.744-.252 1.224V12h-.852V5.7h.816v1.704l-.132-.3c.192-.456.5-.812.924-1.068.432-.264.94-.396 1.524-.396.616 0 1.14.156 1.572.468.432.304.712.764.84 1.38l-.336-.132c.184-.512.508-.924.972-1.236.472-.32 1.036-.48 1.692-.48Zm4.785 8.748c-.296 0-.58-.048-.852-.144a1.846 1.846 0 0 1-.684-.432l.396-.636c.16.152.332.268.516.348.192.088.404.132.636.132.28 0 .52-.08.72-.24.208-.152.404-.424.588-.816l.408-.924.096-.132L95.148 5.7h.84l-3.156 7.056c-.176.408-.372.732-.588.972-.208.24-.436.408-.684.504a2.121 2.121 0 0 1-.828.156Zm1.68-2.208L89.508 5.7h.888l2.568 5.784-.552.696ZM111.215 5.754 105.972 2.5v-.001h-.001l-5.186 3.251V1.407L106 .83l5.215.576v4.347Zm-.004.576-2.085 1.293-3.141-1.967-.006.573 2.685 1.68-.463.288-2.216-1.388-.006.572 1.75 1.095-.413.291-.01.007-1.321-.82-.006.572.868.538-.884.558-5.167-3.233 5.175-3.275 5.24 3.216Zm.004 5.441L106 15.038l-5.215-3.267V7.025l5.193 3.255.008.59-3.562-2.233-.005.573 3.576 2.263.009.605-3.575-2.24-.005.573L106 12.675l3.606-2.272V7.957l1.609-1.011v4.825ZM106 0l-6 .662v11.58L106 16l6-3.759V.662L106 0Z"/></g></symbol><symbol id="address"><g fill="none"><path fill-rule="evenodd" clip-rule="evenodd" d="M11.8 6.5c0 2.33-1.367 4.417-2.912 6.01A17.54 17.54 0 0 1 6.5 14.558a17.54 17.54 0 0 1-2.388-2.046C2.567 10.917 1.2 8.83 1.2 6.5a5.3 5.3 0 1 1 10.6 0Zm1.2 0c0 5.59-6.5 9.5-6.5 9.5S0 12.09 0 6.5a6.5 6.5 0 0 1 13 0Zm-4.2 0a2.3 2.3 0 1 1-4.6 0 2.3 2.3 0 0 1 4.6 0Zm1.2 0a3.5 3.5 0 1 1-7 0 3.5 3.5 0 0 1 7 0Z" fill="#7859CF"/></g></symbol><symbol id="basket"><g fill="none"><path fill-rule="evenodd" clip-rule="evenodd" d="m5.66 3.875.234 2.792h4.213l.232-2.792a2.347 2.347 0 1 0-4.678 0Zm5.784 2.792.224-2.68a3.68 3.68 0 1 0-7.336 0l.224 2.68H0L.19 8l.816 5.71A2.667 2.667 0 0 0 3.646 16h8.708a2.667 2.667 0 0 0 2.64-2.29L15.81 8 16 6.667h-4.556ZM11.334 8h-.054l-.222 2.667h3.024L14.462 8h-3.129ZM9.941 8H6.058l.222 2.667h3.44L9.942 8ZM4.72 8H1.537l.381 2.667h3.024L4.72 8Zm1.893 6.667L6.391 12H9.61l-.222 2.667H6.613ZM10.947 12l-.222 2.667h1.629c.663 0 1.226-.488 1.32-1.145L13.89 12h-2.944Zm-5.894 0 .222 2.667H3.646a1.333 1.333 0 0 1-1.32-1.145L2.11 12h2.944Z" fill="#333"/></g></symbol><symbol id="map-pin"><g fill="none"><ellipse cx="19" cy="48.5" rx="8" ry="1.5" fill="#7859CF" fill-opacity=".25"/><path d="M38 20c0 15.046-19 24-19 24S0 35.046 0 20C0 8.954 8.507 0 19 0s19 8.954 19 20Z" fill="#7859CF"/><path fill-rule="evenodd" clip-rule="evenodd" d="M19 36c8.284 0 15-7.163 15-16 0-8.836-6.716-16-15-16-8.284 0-15 7.164-15 16 0 8.837 6.716 16 15 16Zm9.857-10.667A12.847 12.847 0 0 0 30 20c0-6.627-4.925-12-11-12-.847 0-1.672.104-2.464.302 3.797 1 6.59 4.366 6.59 8.365 0 3.107-1.745 6.152-3.438 8.666h9.169Zm-14.67-14.666c3.418 0 6.188 2.686 6.188 6 0 3.8-3.014 7.467-5.432 10.409-.26.317-.514.625-.755.924h13.011c-2.014 2.455-4.941 4-8.199 4-6.075 0-11-5.373-11-12 0-3.662 1.615-9.334 6.188-9.334Z" fill="#fff"/></g></symbol><symbol id="ok"><g fill="none"><path fill-rule="evenodd" clip-rule="evenodd" d="M11.4 11.4C10 12.812 10 15.074 10 19.6v.914c0 4.456 0 6.698 1.4 8.086 1.412 1.4 3.674 1.4 8.2 1.4h.913c4.457 0 6.699 0 8.087-1.4 1.4-1.412 1.4-3.674 1.4-8.2v-.913c0-4.457 0-6.699-1.4-8.087-1.412-1.4-3.674-1.4-8.2-1.4h-.914c-4.456 0-6.698 0-8.086 1.4Zm8.62 8.797a3.034 3.034 0 0 0 3.028-3.028 3.038 3.038 0 0 0-6.075 0 3.038 3.038 0 0 0 3.046 3.028Zm0-4.28c.688 0 1.25.563 1.25 1.252 0 .689-.562 1.251-1.25 1.251-.69 0-1.252-.562-1.252-1.251-.018-.69.544-1.251 1.251-1.251Zm1.214 6.764a5.729 5.729 0 0 0 1.76-.725.883.883 0 0 0 .271-1.233.883.883 0 0 0-1.233-.272 3.85 3.85 0 0 1-4.08 0 .903.903 0 0 0-1.233.272.904.904 0 0 0 .308 1.215c.544.345 1.143.58 1.76.725L17.1 24.35a.887.887 0 0 0 0 1.251.861.861 0 0 0 .635.254.94.94 0 0 0 .634-.254l1.669-1.668 1.668 1.668a.887.887 0 0 0 1.251 0 .887.887 0 0 0 0-1.251l-1.723-1.669Z" fill="#BDBDBD"/></g></symbol><symbol id="phone"><g fill="none"><path fill-rule="evenodd" clip-rule="evenodd" d="M1.478 1.49C.407 2.09-.173 3.236.046 4.32l.358 1.774c.926 3.123 2.5 5.769 4.825 8.109l1.405 1.188c.857.726 2.17.811 3.24.211l2.23-1.249c.873-.488 1.162-1.534.626-2.259l-1.935-2.613c-.516-.697-1.588-.812-2.366-.253l-1.375.988c-1.228-.88-2.008-2.19-2.179-3.662l1.57-.662c.887-.374 1.32-1.333.957-2.114L6.037.845C5.658.032 4.58-.247 3.707.241l-2.23 1.25Zm-.196 2.528c-.119-.59.197-1.216.782-1.543l2.23-1.25c.217-.121.487-.051.582.152L6.24 4.309c.091.196-.017.435-.239.529l-2.43 1.025.016.416c.082 2.126 1.212 4.025 3.068 5.157l.364.221 2.13-1.53c.194-.14.462-.11.591.064l1.935 2.613c.134.181.061.443-.157.565l-2.23 1.249c-.583.327-1.3.28-1.767-.115l-1.405-1.189C4.39 11.62 2.29 8.091 1.641 5.792l-.359-1.774Z" fill="#7859CF"/></g></symbol><symbol id="pnt"><g fill="none"><path d="M20 9C13.925 9 9 13.925 9 20c0 4.66 2.9 8.644 6.991 10.247-.096-.87-.183-2.21.038-3.16.2-.858 1.29-5.467 1.29-5.467s-.329-.659-.329-1.633c0-1.53.887-2.672 1.99-2.672.94 0 1.392.705 1.392 1.55 0 .944-.6 2.355-.91 3.662-.26 1.095.549 1.988 1.628 1.988 1.955 0 3.458-2.061 3.458-5.037 0-2.634-1.892-4.475-4.595-4.475-3.13 0-4.966 2.347-4.966 4.773 0 .946.364 1.96.818 2.51.09.11.103.205.077.316-.084.348-.27 1.095-.306 1.248-.048.201-.16.244-.368.147-1.374-.64-2.233-2.648-2.233-4.262 0-3.47 2.521-6.656 7.268-6.656 3.816 0 6.782 2.719 6.782 6.353 0 3.79-2.39 6.842-5.708 6.842-1.115 0-2.163-.58-2.521-1.263 0 0-.552 2.1-.686 2.615-.248.955-.919 2.153-1.367 2.883 1.03.319 2.123.49 3.257.49C26.075 31 31 26.076 31 20S26.075 9 20 9Z" fill="#BDBDBD"/></g></symbol><symbol id="user"><g fill="none"><path fill-rule="evenodd" clip-rule="evenodd" d="M10.667 4a2.667 2.667 0 1 1-5.334 0 2.667 2.667 0 0 1 5.334 0ZM12 4a4 4 0 1 1-8 0 4 4 0 0 1 8 0Zm-8.803 8.31C4.437 11.277 6.16 10.667 8 10.667s3.564.61 4.803 1.643c1.232 1.027 1.864 2.362 1.864 3.69H16c0-1.768-.843-3.464-2.343-4.714-1.5-1.25-3.535-1.953-5.657-1.953s-4.157.703-5.657 1.953S0 14.232 0 16h1.333c0-1.328.632-2.663 1.864-3.69Z" fill="#333"/></g></symbol><symbol id="vk"><g fill="none"><path fill-rule="evenodd" clip-rule="evenodd" d="M11.406 11.406C10 12.812 10 15.074 10 19.6v.8c0 4.526 0 6.788 1.406 8.194C12.812 30 15.074 30 19.6 30h.8c4.526 0 6.788 0 8.194-1.406C30 27.188 30 24.925 30 20.4v-.8c0-4.526 0-6.788-1.406-8.194C27.188 10 24.925 10 20.4 10h-.8c-4.526 0-6.788 0-8.194 1.406Zm1.969 4.677c.108 5.2 2.708 8.325 7.267 8.325h.258v-2.975c1.675.167 2.942 1.392 3.45 2.975h2.367c-.65-2.366-2.359-3.675-3.425-4.175 1.066-.616 2.566-2.116 2.925-4.15h-2.15c-.467 1.65-1.85 3.15-3.167 3.292v-3.292h-2.15v5.767c-1.333-.333-3.017-1.95-3.092-5.767h-2.283Z" fill="#BDBDBD"/></g></symbol></svg>